<mxfile host="app.diagrams.net" modified="2024-03-12T13:47:41.195Z" agent="Mozilla/5.0 (Windows NT 10.0; Win64; x64; rv:121.0) Gecko/20100101 Firefox/121.0" etag="r6mp_ojrC4Eo2LWvewnM" version="24.0.5" type="device">
  <diagram name="Página-1" id="UM7KmXvlQZvRodMDoZGP">
    <mxGraphModel dx="3585" dy="1935" grid="1" gridSize="10" guides="1" tooltips="1" connect="1" arrows="1" fold="1" page="1" pageScale="1" pageWidth="827" pageHeight="1169" math="0" shadow="0">
      <root>
        <mxCell id="0" />
        <mxCell id="1" parent="0" />
        <mxCell id="phdum09Gdtg03mPAm3mA-1" value="Main" style="rounded=0;whiteSpace=wrap;html=1;" vertex="1" parent="1">
          <mxGeometry x="40" y="40" width="760" height="1230" as="geometry" />
        </mxCell>
        <mxCell id="phdum09Gdtg03mPAm3mA-3" value="Header" style="rounded=0;whiteSpace=wrap;html=1;" vertex="1" parent="1">
          <mxGeometry x="40" width="760" height="180" as="geometry" />
        </mxCell>
        <mxCell id="phdum09Gdtg03mPAm3mA-6" value="Home" style="rounded=0;whiteSpace=wrap;html=1;" vertex="1" parent="1">
          <mxGeometry x="40" y="180" width="260" height="50" as="geometry" />
        </mxCell>
        <mxCell id="phdum09Gdtg03mPAm3mA-11" value="" style="rounded=0;whiteSpace=wrap;html=1;" vertex="1" parent="1">
          <mxGeometry x="560" y="180" width="240" height="50" as="geometry" />
        </mxCell>
        <mxCell id="phdum09Gdtg03mPAm3mA-12" value="Projetos" style="rounded=0;whiteSpace=wrap;html=1;" vertex="1" parent="1">
          <mxGeometry x="300" y="180" width="260" height="50" as="geometry" />
        </mxCell>
        <mxCell id="phdum09Gdtg03mPAm3mA-13" value="Footer" style="rounded=0;whiteSpace=wrap;html=1;" vertex="1" parent="1">
          <mxGeometry x="40" y="1170" width="760" height="100" as="geometry" />
        </mxCell>
        <mxCell id="phdum09Gdtg03mPAm3mA-14" value="&lt;div&gt;Sidebar&lt;/div&gt;&lt;div&gt;com Links Úteis&lt;br&gt;&lt;/div&gt;" style="rounded=0;whiteSpace=wrap;html=1;" vertex="1" parent="1">
          <mxGeometry x="40" y="230" width="120" height="940" as="geometry" />
        </mxCell>
        <mxCell id="phdum09Gdtg03mPAm3mA-15" value="" style="triangle;whiteSpace=wrap;html=1;direction=west;" vertex="1" parent="1">
          <mxGeometry x="100" y="685" width="60" height="80" as="geometry" />
        </mxCell>
        <mxCell id="phdum09Gdtg03mPAm3mA-18" value="" style="ellipse;whiteSpace=wrap;html=1;aspect=fixed;" vertex="1" parent="1">
          <mxGeometry x="70" y="10" width="160" height="160" as="geometry" />
        </mxCell>
        <mxCell id="phdum09Gdtg03mPAm3mA-19" value="Redes Sociais" style="ellipse;whiteSpace=wrap;html=1;aspect=fixed;" vertex="1" parent="1">
          <mxGeometry x="70" y="1180" width="80" height="80" as="geometry" />
        </mxCell>
        <mxCell id="phdum09Gdtg03mPAm3mA-20" value="Linkedin" style="ellipse;whiteSpace=wrap;html=1;aspect=fixed;" vertex="1" parent="1">
          <mxGeometry x="190" y="1180" width="80" height="80" as="geometry" />
        </mxCell>
        <mxCell id="phdum09Gdtg03mPAm3mA-21" value="GitHub Link" style="ellipse;whiteSpace=wrap;html=1;aspect=fixed;" vertex="1" parent="1">
          <mxGeometry x="690" y="1180" width="80" height="80" as="geometry" />
        </mxCell>
        <mxCell id="phdum09Gdtg03mPAm3mA-22" value="Site Uvv" style="ellipse;whiteSpace=wrap;html=1;aspect=fixed;" vertex="1" parent="1">
          <mxGeometry x="560" y="1180" width="80" height="80" as="geometry" />
        </mxCell>
        <mxCell id="phdum09Gdtg03mPAm3mA-23" value="Contatos" style="rounded=0;whiteSpace=wrap;html=1;" vertex="1" parent="1">
          <mxGeometry x="297" y="1190" width="246" height="20" as="geometry" />
        </mxCell>
        <mxCell id="phdum09Gdtg03mPAm3mA-26" value="Versão da Página" style="rounded=0;whiteSpace=wrap;html=1;" vertex="1" parent="1">
          <mxGeometry x="350" y="1240" width="140" height="20" as="geometry" />
        </mxCell>
        <mxCell id="phdum09Gdtg03mPAm3mA-28" value="Header" style="rounded=0;whiteSpace=wrap;html=1;" vertex="1" parent="1">
          <mxGeometry x="210" y="310" width="560" height="150" as="geometry" />
        </mxCell>
      </root>
    </mxGraphModel>
  </diagram>
</mxfile>
